<?xml version="1.0" standalone="no"?>
<!DOCTYPE svg PUBLIC "-//W3C//DTD SVG 1.1//EN" "http://www.w3.org/Graphics/SVG/1.1/DTD/svg11.dtd">
<svg width="180mm" height="150mm" viewBox="0 0 1800 1500" version="1.1" xmlns="http://www.w3.org/2000/svg" xmlns:xlink="http://www.w3.org/1999/xlink">
  <title>48-Tamiya-Fw-190</title>
  <style>
    :root {
      fill: none;
      stroke: black;
      stroke-width: 1;
    }
    path {
      vector-effect: non-scaling-stroke;
    }
    .dot {
      fill: black;
    }
    .hidden {
      display: none;
    }
  </style>
  <defs>
    <g id="one">
      <!-- paths go here -->
      <path d="M 100 100 L 200 100 200 200 100 200 Z" />
    </g>
    <g id="w" transform="scale(0.135)">
      <title>Windscreen</title>
      <path d="M 650 0 L 0 0 L 0 350 L 650 350 Z" />
    </g>
    <g id="ws" transform="scale(0.135)">
      <title>Windscreen side</title>
      <path d="M 600 0 L 0 0 L 419 621 Z" />
    </g>
    <g id="blownside" transform="scale(0.135)">
      <path d="M 59 108   C 589 85, 993 140, 1603 411   L 1382 741 L 145 724 Q 104 716, 98 689   Q 67 409, 59 108" />
    </g>
  </defs>
  <g transform="translate(140,150) scale(1.0, -1.0)">
    <use  href="#ws" />
  </g>
  <g transform="translate(140,200) scale(1.0)">
    <use  href="#w" />
  </g>
  <g transform="translate(140,300) scale(1.0)">
    <use  href="#ws" />
  </g>
  <g transform="translate(300,300) scale(1.0)">
    <use href="#blownside" />
  </g>
  <rect x="20" y="20" width="1760" height="1460" />
</svg>
