<?xml version="1.0" standalone="no"?>
<!DOCTYPE svg PUBLIC "-//W3C//DTD SVG 1.1//EN" "http://www.w3.org/Graphics/SVG/1.1/DTD/svg11.dtd">
<svg width="180mm" height="150mm" viewBox="0 0 1800 1500" version="1.1" xmlns="http://www.w3.org/2000/svg" xmlns:xlink="http://www.w3.org/1999/xlink">
  <title>48-Tamiya-Fw-190</title>
  <style>
    :root {
      fill: none;
      stroke: black;
      stroke-width: 1;
    }
    path, line {
      vector-effect: non-scaling-stroke;
    }
    .dot {
      fill: black;
    }
    .hidden {
      display: none;
    }
  </style>
  <defs>
    <g id="one">
      <!-- paths go here -->
      <path d="M 100 100 L 200 100 200 200 100 200 Z" />
    </g>
    <g id="w" transform="scale(0.135)">
      <title>Windscreen</title>
      <path d="M 650 0 L 0 0 L 0 350 L 650 350 Z" />
    </g>
    <g id="ws" transform="scale(0.135)">
      <title>Windscreen side</title>
      <path d="M 600 0 L 0 0 L 419 621 Z" />
    </g>
    <g id="blownside" transform="scale(0.135)">
      <path d="M 59 108   C 589 85, 993 140, 1603 411   L 1382 741 L 145 724 Q 104 716, 98 689   Q 67 409, 59 108" />
    </g>
    <g id="blowntop" transform="scale(0.135)">
      <path d="M 92 168 L 2007 168   Q 2012 448, 1962 642   L 1385 641 L 1322 298 L 1324 642  L 817 658 L 774 247 L 769 658   L 88 653 Z" />
      <line x1="260" y1="343" x2="260" y2="700" />
      <line x1="1752" y1="343" x2="1752" y2="700" />
    </g>
    <g id="flatside" transform="scale(0.135)">
      <path d="M 64 97 L 1512 409 L 1236 703 L 130 692 Z" />
    </g>
    <g id="flattop" transform="scale(0.135)">
      <path d="M 93 742 L 52 541 L 56 436 L 732 436 Q 790 398, 732 360 L 1090 364 L 1049 674 L 551 742  Z" />
      <line x1="273" y1="551" x2="273" y2="765" />
      <line x1="547" y1="551" x2="547" y2="765" />
      <line x1="925" y1="535" x2="800" y2="740" />
    </g>
    <g id="flatrear" transform="scale(0.135)">
      <path d="M 1037 266 L 928 125 L 1218 181 Q 1380 413, 1205 645 L 928 701 L 1037 560 Z" />
    </g>
  </defs>
<!--
  <g transform="translate(140,150) scale(1.0, -1.0)">
    <use  href="#ws" />
  </g>
-->
  <g transform="translate(140,200) scale(1.0)">
    <use  href="#w" />
  </g>
  <g transform="translate(140,300) scale(1.0)">
    <use  href="#ws" />
  </g>
  <g transform="translate(300,300) scale(1.08)">
    <use href="#blownside" />
  </g>
  <g transform="translate(300,180) scale(0.94, 1.0)">
    <use href="#blowntop" />
  </g>
  <g transform="translate(640,300) scale(0.94, 1.0)">
    <use href="#flatside" />
  </g>
  <g transform="translate(640,180) scale(0.94, 1.0)">
    <use href="#flattop" />
  </g>
  <g transform="translate(720,180) scale(0.94, 1.0)">
    <use href="#flatrear" />
  </g>
  <!-- <rect x="20" y="20" width="1760" height="1460" /> -->
</svg>
