<?xml version="1.0" standalone="no"?>
<!DOCTYPE svg PUBLIC "-//W3C//DTD SVG 1.1//EN" "http://www.w3.org/Graphics/SVG/1.1/DTD/svg11.dtd">
<svg width="180mm" height="150mm" viewBox="0 0 1800 1500" version="1.1" xmlns="http://www.w3.org/2000/svg" xmlns:xlink="http://www.w3.org/1999/xlink">
  <title>48-Hasegawa-Bf-109G-14-Erla</title>
  <style>
    :root {
      fill: none;
      stroke: black;
      stroke-width: 1;
    }
    path, line {
      vector-effect: non-scaling-stroke;
    }
    .dot {
      fill: black;
    }
    .hidden {
      display: none;
    }
  </style>
  <defs>
    <g id="rearside" transform="scale(0.2) scale(0.6)">
      <path d="M 96 56 L 510 62 L 510 684 L 96 684 Z" />
      <path d="M 704 64 C 1028 60, 1346 120, 1672 234 L 1420 512 Q 1310 652, 1110 684 L 704 684 Z" />
    </g>
    <g id="reartop" transform="scale(0.2) scale(0.6)">
        <path d="M 64 142 L 404 146 L 404 554 L 64 538 Z" />
        <path d="M 1280 142 L 1830 144 Q 1854 466, 1688 718 Q 1468 656, 1280 624 Z" />
    </g>
    <g id="wside" transform="scale(0.15) scale(0.55)">
        <path d="M 404 106 L 736 372 Q 796 418, 796 520 L 786 634 L 66 622 Z" />
    </g>
    <g id="wtop" transform="scale(0.15) scale(0.7)">
        <path d="M 96 136 L 140 136 L 388 68 L 388 736 L 140 674 L 96 672 Z" />
    </g>
    <g id="windscreen" transform="scale(0.15) scale(0.7)">
        <path d="M 66 92 L 460 146 L 460 666 L 66 720 Q 260 411, 66 92" />
    </g>
  </defs>
  <g>
    <use href="#rearside" x="340" y="320" />
  </g>
  <g>
    <use href="#reartop" x="340" y="180" />
  </g>
  <g>
    <use href="#wside" x="140" y="320" />
  </g>
  <g>
    <use href="#wtop" x="240" y="200" />
  </g>
  <g>
    <use href="#windscreen" x="120" y="200" />
  </g>
</svg>
