<?xml version="1.0" standalone="no"?>
<!DOCTYPE svg PUBLIC "-//W3C//DTD SVG 1.1//EN" "http://www.w3.org/Graphics/SVG/1.1/DTD/svg11.dtd">
<svg width="180mm" height="150mm" viewBox="0 0 1800 1500" version="1.1" xmlns="http://www.w3.org/2000/svg" xmlns:xlink="http://www.w3.org/1999/xlink">
  <title>48-Hasegawa-Bf-109E-3</title>
  <style>
    :root {
      fill: none;
      stroke: black;
      stroke-width: 1;
    }
    path, line {
      vector-effect: non-scaling-stroke;
    }
    .dot {
      fill: black;
    }
    .hidden {
      display: none;
    }
  </style>
  <defs>
    <g id="side" transform="scale(0.08)">
      <!-- side window -->
      <path d="M 80 50 L 1700 50 L 1700 720 L 80 720 Z" />
    </g>
    <g id="top" transform="scale(0.08)">
      <!-- top window -->
      <path d="M 80 50 L 1700 50 L 1700 1750 L 80 1750 Z" />
      <line x1="20" y1="900" x2="1790" y2="900" />
    </g>
    <g id="rear" transform="scale(0.24) scale(1.0, 1.1)">
      <!-- rear (lower part only) -->
      <!-- <path d="M 0 437 L 0 770 L 210 550 Q 250 518, 255 437 Z" /> -->
      <!-- <path d="M 0 417 L 0 770 L 230 530 Q 270 498, 275 417 Z" /> -->
      <path d="M 20 417 L 0 770 L 250 530 Q 290 498, 320 417 Z" />
    </g>
    <g id="wside1" transform="scale(0.06)">
      <!-- windscreen side, lower part (against the front edge) -->
      <path d="M 104 151 L 990 604 L 104 604 Z" />
    </g>
    <g id="wside2" transform="scale(0.1)">
      <!-- windscreen side, upper part (closest to side) -->
      <path d="M 66 510 L 272 99 L 638 220 L 654 772 Z" />
    </g>
    <g id="ws" transform="scale(0.112, 0.1) scale(0.97, 1.12)">
      <!-- windscreen -->
      <path d="M 60 124 L 420 166 L 420 652 L 60 694 Q 170 409, 60 124" />
    </g>
    <g id="wtop" transform="scale(0.15) scale(0.9, 1.05) scale(1.0, 1.4)">
      <!-- windscreen top -->
      <path d="M 37 183 L 59 183 L 262 45 L 286 93 L 286 688 L 262 736 L 59 598 L 37 598 Z" />
    </g>
  </defs>
<!--
  <g transform="translate(570 180)" >
    <use href="#ws" />
  </g>
  <g transform="translate(660 160)" >
    <use href="#wtop" />
  </g>
  <g transform="translate(640 200)" >
    <use href="#wside1" />
  </g>
  <g transform="translate(640 300)" >
    <use href="#wside2" />
  </g>
  <g transform="translate(740 150)" >
    <use href="#top" />
  </g>
  <g transform="translate(740 300)" >
    <use href="#side" />
  </g>
-->
  <g transform="translate(740 60)" >
    <use href="#rear" />
  </g>
</svg>
