<?xml version="1.0" standalone="no"?>
<!DOCTYPE svg PUBLIC "-//W3C//DTD SVG 1.1//EN" "http://www.w3.org/Graphics/SVG/1.1/DTD/svg11.dtd">
<svg width="180mm" height="150mm" viewBox="0 0 1800 1500" version="1.1" xmlns="http://www.w3.org/2000/svg" xmlns:xlink="http://www.w3.org/1999/xlink">
  <title>48-Hasegawa-Ki-43-I</title>
  <style>
    :root {
      fill: none;
      stroke: black;
      stroke-width: 1;
    }
    path, line {
      vector-effect: non-scaling-stroke;
    }
    .dot {
      fill: black;
    }
    .hidden {
      display: none;
    }
  </style>
  <defs>
    <g id="top" transform="scale(0.96)" >
      <!-- <path d="M 0 0 L 88 0 L 88 42 L 0 42 Z" /> -->
      <path d="M 0 2 Q 0 0, 2 0 L 86 0 Q 88 0, 88 2 L 88 40 Q 88 42, 86 42 L 2 42 Q 0 42, 0 40 Z" />
    </g>
    <g id="side">
      <path d="M 0 0 Q 55 -2, 85 5 L 85 68 L 0 65 Z" />
      <line x1="-2" y1="4" x2="4" y2="-2" />
      <line x1="81" y1="3" x2="87" y2="9" />
      <line x1="87" y1="64" x2="81" y2="70" />
      <line x1="4" y1="67" x2="-2" y2="61" />
    </g>
    <g id="windscreen" transform="scale(1.0, 1.02)" >
      <path d="M 4 0 L 38 0 Q 30 25, 42 95 Q 20 80, 0 95   Q 12 25, 4 0" />
    </g>
    <g id="wside">
      <path d="M 0 0 L 70 0  L 82 13   L 44 64   Q 28 32, 0 0" />
    </g>
    <g id="rear1" transform="scale(0.3)">
      <!-- forward corner of rear window -->
      <path d="M 110 600 L 136 718 Q 140 738, 164 728 L 324 660 Z" />
    </g>
    <g id="rear2" transform="scale(0.15)">
      <!-- back corner of rear window -->
      <path d="M 40 98 L 40 662 L 296 474  Q 360 385, 296 296  Z" />
    </g>
  </defs>
<!--
  <g transform="translate(700 240)">
    <use href="#rear1" />
  </g>
  <g transform="translate(740 260)">
    <use href="#rear2" />
  </g>
  <g transform="translate(540 300)">
    <use href="#top" />
  </g>
  <g transform="translate(540 400)">
    <use href="#side" />
  </g>
-->
  <g transform="translate(360 280)">
    <use href="#windscreen" />
  </g>
  <!--
  <g transform="translate(340 420)">
    <use href="#wside" />
  </g>
-->
</svg>
