<?xml version="1.0" standalone="no"?>
<!DOCTYPE svg PUBLIC "-//W3C//DTD SVG 1.1//EN" "http://www.w3.org/Graphics/SVG/1.1/DTD/svg11.dtd">
<svg width="180mm" height="150mm" viewBox="0 0 1800 1500" version="1.1" xmlns="http://www.w3.org/2000/svg" xmlns:xlink="http://www.w3.org/1999/xlink">
  <title>48-Hasegawa-Ki-43-I</title>
  <style>
    :root {
      fill: none;
      stroke: black;
      stroke-width: 1;
    }
    path {
      vector-effect: non-scaling-stroke;
    }
    .dot {
      fill: black;
    }
    .hidden {
      display: none;
    }
  </style>
  <defs>
    <g id="top" transform="scale(0.96)" >
      <path d="M 0 0 L 88 0 L 88 42 L 0 42 Z" />
    </g>
    <g id="side">
      <!-- <path d="M 0 0 L 85 5 L 85 65 L 0 65 Z" /> -->
      <path d="M 0 0 Q 55 -2, 85 5 L 85 65 L 0 65 Z" />
    </g>
    <g id="windscreen" transform="scale(0.96)" >
      <path d="M 4 0 L 36 0 Q 30 25, 42 95 L 2 95 Z" />
    </g>
    <g id="wside">
      <path d="M 0 0 L 70 0  L 82 13   L 44 64 Z" />
    </g>
    <g id="rear1" transform="scale(0.3)">
      <!-- forward corner of rear window -->
      <path d="M 110 600 L 136 718 Q 140 738, 164 728 L 324 660 Z" />
    </g>
    <g id="rear2" transform="scale(0.15)">
      <!-- back corner of rear window -->
      <path d="M 40 98 L 40 662 L 296 474  Q 360 385, 296 296  Z" />
    </g>
  </defs>
<!--
  <g transform="translate(700 240)">
    <use href="#rear1" />
  </g>
  <g transform="translate(740 260)">
    <use href="#rear2" />
  </g>
-->
  <g transform="translate(540 300)">
    <use href="#top" />
  </g>
  <g transform="translate(540 400)">
    <use href="#side" />
  </g>
  <g transform="translate(360 280)">
    <use href="#windscreen" />
  </g>
  <g transform="translate(340 420)">
    <use href="#wside" />
  </g>
</svg>
