<?xml version="1.0" standalone="no"?>
<!DOCTYPE svg PUBLIC "-//W3C//DTD SVG 1.1//EN" "http://www.w3.org/Graphics/SVG/1.1/DTD/svg11.dtd">
<svg width="180mm" height="150mm" viewBox="0 0 1800 1500" version="1.1" xmlns="http://www.w3.org/2000/svg" xmlns:xlink="http://www.w3.org/1999/xlink">
  <title>48-Tamiya-Fw-190</title>
  <style>
    :root {
      fill: none;
      stroke: black;
      stroke-width: 1;
    }
    path, line {
      vector-effect: non-scaling-stroke;
    }
    .dot {
      fill: black;
    }
    .hidden {
      display: none;
    }
  </style>
  <defs>
    <g id="one">
      <!-- paths go here -->
      <path d="M 100 100 L 200 100 200 200 100 200 Z" />
    </g>
    <g id="flatside" transform="scale(0.164)">
      <path d="M 64 97 L 1522 409 L 1236 703 L 120 692 Z" />
    </g>
    <g id="flattop" transform="scale(0.21, 0.145)">
      <path d="M 93 742 L 52 541 L 56 436 L 732 436 Q 790 398, 732 360 L 1090 364 L 1049 674 L 551 742  Z" />
    </g>
    <g id="flatrear" transform="scale(0.135)">
      <path d="M 1037 266 L 928 125 L 1218 181 Q 1360 413, 1205 645 L 928 701 L 1037 560 Z" />
    </g>
  </defs>
  <g transform="translate(640,330) scale(0.94, 1.0)">
    <use href="#flatside" />
  </g>
  <g transform="translate(640,200) scale(0.94, 1.0)">
    <use href="#flattop" />
  </g>
  <g transform="translate(640,160) scale(0.94, -1.0)">
    <use href="#flatside" />
  </g>
  <g transform="translate(640,280) scale(0.94, -1.0)">
    <use href="#flattop" />
  </g>
  <g transform="translate(780,180) scale(0.94, 1.0)">
    <use href="#flatrear" />
  </g>
  <!-- <rect x="20" y="20" width="1760" height="1460" /> -->
</svg>
